<svg width="1000" height="1000" viewBox="0 0 1000 1000" xmlns="http://www.w3.org/2000/svg"><defs/><path fill="#80bb3b" transform="matrix(0.33366612070487045 0 0 0.33366612070487045 34.11629461991064 1.816560507255633)" d="M 722.00438060443 1449.98914098362 L 613.50438060443 1375.28914098362 L 431.90438060443 1502.38914098362 L 375.10438060443 1542.18914098362 C 357.70438060443 1554.38914098362 347.30438060443 1574.28914098362 347.30438060443 1595.58914098362 L 347.30438060443 1675.68914098362 C 347.30438060443 1725.78914098362 403.40438060443 1755.28914098362 444.70438060443 1726.98914098362 L 473.90438060443 1706.98914098362 L 569.70438060443 1641.38914098362 L 600.60438060443 1620.18914098362 L 721.90438060443 1537.08914098362 C 752.50438060443 1516.18914098362 752.60438060443 1470.98914098362 722.00438060443 1449.98914098362 Z"/><g opacity="0.67" transform="matrix(0.33366612070487045 0 0 0.33366612070487045 34.11629461991064 1.816560507255633)"><path fill="#bddc3f" d="M 722.00438060443 1449.98914098362 L 613.50438060443 1375.28914098362 L 444.80438060443 1259.18914098362 C 403.50438060443 1230.78914098362 347.30438060443 1260.28914098362 347.30438060443 1310.48914098362 L 347.30438060443 1409.38914098362 C 347.30438060443 1430.68914098362 357.70438060443 1450.68914098362 375.20438060443 1462.88914098362 L 432.00438060443 1502.48914098362 L 536.70438060443 1575.68914098362 C 554.90438060443 1590.98914098362 566.50438060443 1613.98914098362 566.50438060443 1639.58914098362 C 566.50438060443 1640.98914098362 566.50438060443 1642.38914098362 566.40438060443 1643.78914098362 L 600.70438060443 1620.28914098362 L 722.00438060443 1537.18914098362 C 752.50438060443 1516.18914098362 752.60438060443 1470.98914098362 722.00438060443 1449.98914098362 Z"/></g><path id="text" fill="#39844f" transform="matrix(0.9675726473789317 0 0 0.9675726473789317 208.3010348847276 79.45300373051596)" d="M 108.86119575118 393.43813672718 L 133.51744575118 393.43813672718 L 133.51744575118 401.50063672718 L 118.56432075118 401.50063672718 L 118.56432075118 429.71938672718 L 132.72057075118 429.71938672718 L 132.72057075118 437.78188672718 L 118.56432075118 437.78188672718 L 118.56432075118 467.87563672718 L 133.70494575118 467.87563672718 L 133.70494575118 475.93813672718 L 108.86119575118 475.93813672718 L 108.86119575118 393.43813672718 Z M 164.82994575118 393.43813672718 L 173.54869575118 393.43813672718 L 162.11119575118 435.76626172718 L 173.92369575118 475.93813672718 L 165.48619575118 475.93813672718 L 157.09557075118 447.43813672718 L 149.68932075118 475.93813672718 L 140.82994575118 475.93813672718 L 152.64244575118 432.25063672718 L 141.20494575118 393.43813672718 L 149.68932075118 393.43813672718 L 157.75182075118 420.90688672718 L 164.82994575118 393.43813672718 Z M 183.15807075118 393.43813672718 L 199.75182075118 393.43813672718 C 207.06432075118 393.43813672718 211.65807075118 396.46938672718 213.53307075118 402.53188672718 C 214.72057075118 406.34438672718 215.31432075118 410.79751172718 215.31432075118 415.89126172718 C 215.31432075118 420.98501172718 215.17369575118 424.81313672718 214.89244575118 427.37563672718 C 214.26744575118 433.00063672718 212.78307075118 437.10219922718 210.43932075118 439.68032422718 C 208.09557075118 442.25844922718 204.53307075118 443.54751172718 199.75182075118 443.54751172718 L 192.86119575118 443.54751172718 L 192.86119575118 475.93813672718 L 183.15807075118 475.93813672718 L 183.15807075118 393.43813672718 Z M 205.61119575118 416.73501172718 C 205.61119575118 411.07876172718 205.16588325118 407.06313672718 204.27525825118 404.68813672718 C 203.38463325118 402.31313672718 201.62682075118 401.12563672718 199.00182075118 401.12563672718 L 192.86119575118 401.12563672718 L 192.86119575118 435.48501172718 L 198.76744575118 435.48501172718 C 201.51744575118 435.48501172718 203.34557075118 434.28188672718 204.25182075118 431.87563672718 C 205.15807075118 429.46938672718 205.61119575118 424.95376172718 205.61119575118 418.32876172718 L 205.61119575118 416.73501172718 Z M 224.87682075118 393.43813672718 L 249.53307075118 393.43813672718 L 249.53307075118 401.50063672718 L 234.57994575118 401.50063672718 L 234.57994575118 429.71938672718 L 248.73619575118 429.71938672718 L 248.73619575118 437.78188672718 L 234.57994575118 437.78188672718 L 234.57994575118 467.87563672718 L 249.72057075118 467.87563672718 L 249.72057075118 475.93813672718 L 224.87682075118 475.93813672718 L 224.87682075118 393.43813672718 Z M 286.47057075118 393.43813672718 L 295.04869575118 393.43813672718 L 295.04869575118 475.93813672718 L 287.92369575118 475.93813672718 L 269.40807075118 419.31313672718 L 269.97057075118 440.12563672718 L 269.97057075118 475.93813672718 L 261.01744575118 475.93813672718 L 261.01744575118 393.43813672718 L 268.32994575118 393.43813672718 L 287.45494575118 449.59438672718 L 286.47057075118 425.73501172718 L 286.47057075118 393.43813672718 Z M 307.61119575118 418.98501172718 C 307.04869575118 417.01626172718 306.76744575118 414.65688672718 306.76744575118 411.90688672718 C 306.76744575118 405.93813672718 307.86900825118 401.19594922718 310.07213325118 397.68032422718 C 312.27525825118 394.16469922718 316.48619575118 392.40688672718 322.70494575118 392.40688672718 C 330.70494575118 392.40688672718 335.42369575118 396.25063672718 336.86119575118 403.93813672718 C 337.48619575118 407.25063672718 337.79869575118 411.42251172718 337.79869575118 416.45376172718 L 337.79869575118 421.32876172718 L 328.51744575118 421.32876172718 L 328.51744575118 415.79751172718 C 328.51744575118 410.54751172718 328.25182075118 407.01626172718 327.72057075118 405.20376172718 C 327.18932075118 403.39126172718 326.53307075118 402.18813672718 325.75182075118 401.59438672718 C 324.97057075118 401.00063672718 323.95494575118 400.70376172718 322.70494575118 400.70376172718 C 320.36119575118 400.70376172718 318.67369575118 401.56313672718 317.64244575118 403.28188672718 C 316.61119575118 405.00063672718 316.09557075118 407.54751172718 316.09557075118 410.92251172718 C 316.09557075118 414.29751172718 316.56432075118 416.76626172718 317.50182075118 418.32876172718 C 318.43932075118 419.89126172718 319.59557075118 421.38344922718 320.97057075118 422.80532422718 C 322.34557075118 424.22719922718 323.11119575118 425.03188672718 323.26744575118 425.21938672718 L 328.89244575118 431.17251172718 C 335.64244575118 438.23501172718 339.01744575118 446.14126172718 339.01744575118 454.89126172718 C 339.01744575118 462.01626172718 337.91588325118 467.46157422718 335.71275825118 471.22719922718 C 333.50963325118 474.99282422718 329.31432075118 476.87563672718 323.12682075118 476.87563672718 C 315.65807075118 476.87563672718 310.92369575118 473.59438672718 308.92369575118 467.03188672718 C 307.76744575118 463.34438672718 307.18932075118 458.51626172718 307.18932075118 452.54751172718 C 307.18932075118 452.39126172718 307.18932075118 452.23501172718 307.18932075118 452.07876172718 L 307.18932075118 444.06313672718 L 316.61119575118 444.06313672718 L 316.61119575118 452.45376172718 C 316.61119575118 458.48501172718 317.04869575118 462.68032422718 317.92369575118 465.03969922718 C 318.79869575118 467.39907422718 320.42369575118 468.57876172718 322.79869575118 468.57876172718 C 325.17369575118 468.57876172718 326.81432075118 468.02407422718 327.72057075118 466.91469922718 C 328.62682075118 465.80532422718 329.15025825118 464.11001172718 329.29088325118 461.82876172718 C 329.43150825118 459.54751172718 329.50182075118 456.98501172718 329.50182075118 454.14126172718 C 329.50182075118 448.42251172718 326.98619575118 443.04751172718 321.95494575118 438.01626172718 L 316.56432075118 432.62563672718 C 311.75182075118 427.68813672718 308.76744575118 423.14126172718 307.61119575118 418.98501172718 Z M 349.42369575118 393.43813672718 L 374.07994575118 393.43813672718 L 374.07994575118 401.50063672718 L 359.12682075118 401.50063672718 L 359.12682075118 429.71938672718 L 373.28307075118 429.71938672718 L 373.28307075118 437.78188672718 L 359.12682075118 437.78188672718 L 359.12682075118 467.87563672718 L 374.26744575118 467.87563672718 L 374.26744575118 475.93813672718 L 349.42369575118 475.93813672718 L 349.42369575118 393.43813672718 Z M 384.62682075118 418.98501172718 C 384.06432075118 417.01626172718 383.78307075118 414.65688672718 383.78307075118 411.90688672718 C 383.78307075118 405.93813672718 384.88463325118 401.19594922718 387.08775825118 397.68032422718 C 389.29088325118 394.16469922718 393.50182075118 392.40688672718 399.72057075118 392.40688672718 C 407.72057075118 392.40688672718 412.43932075118 396.25063672718 413.87682075118 403.93813672718 C 414.50182075118 407.25063672718 414.81432075118 411.42251172718 414.81432075118 416.45376172718 L 414.81432075118 421.32876172718 L 405.53307075118 421.32876172718 L 405.53307075118 415.79751172718 C 405.53307075118 410.54751172718 405.26744575118 407.01626172718 404.73619575118 405.20376172718 C 404.20494575118 403.39126172718 403.54869575118 402.18813672718 402.76744575118 401.59438672718 C 401.98619575118 401.00063672718 400.97057075118 400.70376172718 399.72057075118 400.70376172718 C 397.37682075118 400.70376172718 395.68932075118 401.56313672718 394.65807075118 403.28188672718 C 393.62682075118 405.00063672718 393.11119575118 407.54751172718 393.11119575118 410.92251172718 C 393.11119575118 414.29751172718 393.57994575118 416.76626172718 394.51744575118 418.32876172718 C 395.45494575118 419.89126172718 396.61119575118 421.38344922718 397.98619575118 422.80532422718 C 399.36119575118 424.22719922718 400.12682075118 425.03188672718 400.28307075118 425.21938672718 L 405.90807075118 431.17251172718 C 412.65807075118 438.23501172718 416.03307075118 446.14126172718 416.03307075118 454.89126172718 C 416.03307075118 462.01626172718 414.93150825118 467.46157422718 412.72838325118 471.22719922718 C 410.52525825118 474.99282422718 406.32994575118 476.87563672718 400.14244575118 476.87563672718 C 392.67369575118 476.87563672718 387.93932075118 473.59438672718 385.93932075118 467.03188672718 C 384.78307075118 463.34438672718 384.20494575118 458.51626172718 384.20494575118 452.54751172718 C 384.20494575118 452.39126172718 384.20494575118 452.23501172718 384.20494575118 452.07876172718 L 384.20494575118 444.06313672718 L 393.62682075118 444.06313672718 L 393.62682075118 452.45376172718 C 393.62682075118 458.48501172718 394.06432075118 462.68032422718 394.93932075118 465.03969922718 C 395.81432075118 467.39907422718 397.43932075118 468.57876172718 399.81432075118 468.57876172718 C 402.18932075118 468.57876172718 403.82994575118 468.02407422718 404.73619575118 466.91469922718 C 405.64244575118 465.80532422718 406.16588325118 464.11001172718 406.30650825118 461.82876172718 C 406.44713325118 459.54751172718 406.51744575118 456.98501172718 406.51744575118 454.14126172718 C 406.51744575118 448.42251172718 404.00182075118 443.04751172718 398.97057075118 438.01626172718 L 393.57994575118 432.62563672718 C 388.76744575118 427.68813672718 385.78307075118 423.14126172718 384.62682075118 418.98501172718 Z M 450.90807075118 393.43813672718 L 460.04869575118 393.43813672718 L 447.53307075118 475.93813672718 L 436.23619575118 475.93813672718 L 422.50182075118 393.43813672718 L 431.73619575118 393.43813672718 L 437.22057075118 428.36001172718 L 441.90807075118 459.06313672718 L 442.09557075118 459.06313672718 L 446.17369575118 428.36001172718 L 450.90807075118 393.43813672718 Z M 468.48619575118 415.84438672718 C 468.48619575118 406.46938672718 470.17369575118 400.03188672718 473.54869575118 396.53188672718 C 476.20494575118 393.78188672718 480.06432075118 392.40688672718 485.12682075118 392.40688672718 C 492.50182075118 392.40688672718 497.22057075118 395.43813672718 499.28307075118 401.50063672718 C 500.50182075118 405.09438672718 501.11119575118 409.87563672718 501.11119575118 415.84438672718 L 501.11119575118 452.21938672718 C 501.11119575118 460.81313672718 499.90807075118 467.07094922718 497.50182075118 470.99282422718 C 495.09557075118 474.91469922718 490.88463325118 476.87563672718 484.86900825118 476.87563672718 C 478.85338325118 476.87563672718 474.61900825118 474.90688672718 472.16588325118 470.96938672718 C 469.71275825118 467.03188672718 468.48619575118 460.78188672718 468.48619575118 452.21938672718 L 468.48619575118 415.84438672718 Z M 491.40807075118 415.28188672718 C 491.40807075118 410.00063672718 490.98619575118 406.25844922718 490.14244575118 404.05532422718 C 489.29869575118 401.85219922718 487.59557075118 400.75063672718 485.03307075118 400.75063672718 C 482.47057075118 400.75063672718 480.68932075118 401.87563672718 479.68932075118 404.12563672718 C 478.68932075118 406.37563672718 478.18932075118 410.07876172718 478.18932075118 415.23501172718 L 478.18932075118 452.31313672718 C 478.18932075118 458.59438672718 478.62682075118 462.86782422718 479.50182075118 465.13344922718 C 480.37682075118 467.39907422718 482.14244575118 468.53188672718 484.79869575118 468.53188672718 C 487.45494575118 468.53188672718 489.22057075118 467.38344922718 490.09557075118 465.08657422718 C 490.97057075118 462.78969922718 491.40807075118 458.53188672718 491.40807075118 452.31313672718 L 491.40807075118 415.28188672718 Z M 535.70494575118 393.43813672718 L 545.22057075118 393.43813672718 L 531.90807075118 441.29751172718 L 531.90807075118 475.93813672718 L 522.20494575118 475.93813672718 L 522.20494575118 441.29751172718 L 507.86119575118 393.43813672718 L 517.28307075118 393.43813672718 L 527.03307075118 427.18813672718 L 527.22057075118 427.18813672718 L 535.70494575118 393.43813672718 Z M 560.03307075118 393.43813672718 L 571.70494575118 393.43813672718 L 585.34557075118 475.93813672718 L 576.20494575118 475.93813672718 L 573.86119575118 460.18813672718 L 558.90807075118 460.18813672718 L 556.75182075118 475.93813672718 L 547.51744575118 475.93813672718 L 560.03307075118 393.43813672718 Z M 559.98619575118 452.31313672718 L 572.64244575118 452.31313672718 L 566.12682075118 408.71938672718 L 565.98619575118 408.71938672718 L 559.98619575118 452.31313672718 Z M 593.26744575118 416.78188672718 C 593.26744575118 404.65688672718 596.14244575118 397.12563672718 601.89244575118 394.18813672718 C 604.14244575118 393.06313672718 606.61119575118 392.48501172718 609.29869575118 392.45376172718 C 614.32994575118 392.45376172718 617.97057075118 393.52407422718 620.22057075118 395.66469922718 C 622.47057075118 397.80532422718 623.92369575118 400.63344922718 624.57994575118 404.14907422718 C 625.23619575118 407.66469922718 625.56432075118 411.93813672718 625.56432075118 416.96938672718 L 625.56432075118 423.34438672718 L 616.18932075118 423.34438672718 L 616.18932075118 412.61001172718 C 616.18932075118 408.39126172718 615.75963325118 405.37563672718 614.90025825118 403.56313672718 C 614.04088325118 401.75063672718 612.35338325118 400.84438672718 609.83775825118 400.84438672718 C 607.32213325118 400.84438672718 605.54869575118 401.98501172718 604.51744575118 404.26626172718 C 603.48619575118 406.54751172718 602.97057075118 410.57876172718 602.97057075118 416.36001172718 L 602.97057075118 451.04751172718 C 602.97057075118 457.64126172718 603.42369575118 462.22719922718 604.32994575118 464.80532422718 C 605.23619575118 467.38344922718 607.02525825118 468.67251172718 609.69713325118 468.67251172718 C 612.36900825118 468.67251172718 614.19713325118 467.34438672718 615.18150825118 464.68813672718 C 616.16588325118 462.03188672718 616.65807075118 457.42251172718 616.65807075118 450.86001172718 L 616.65807075118 440.12563672718 L 609.95494575118 440.12563672718 L 609.95494575118 432.62563672718 L 625.56432075118 432.62563672718 L 625.56432075118 475.93813672718 L 620.45494575118 475.93813672718 L 619.14244575118 469.56313672718 C 617.29869575118 474.34438672718 613.77525825118 476.73501172718 608.57213325118 476.73501172718 C 603.36900825118 476.73501172718 599.51744575118 474.71157422718 597.01744575118 470.66469922718 C 594.51744575118 466.61782422718 593.26744575118 460.18813672718 593.26744575118 451.37563672718 L 593.26744575118 416.78188672718 Z M 638.36119575118 393.43813672718 L 663.01744575118 393.43813672718 L 663.01744575118 401.50063672718 L 648.06432075118 401.50063672718 L 648.06432075118 429.71938672718 L 662.22057075118 429.71938672718 L 662.22057075118 437.78188672718 L 648.06432075118 437.78188672718 L 648.06432075118 467.87563672718 L 663.20494575118 467.87563672718 L 663.20494575118 475.93813672718 L 638.36119575118 475.93813672718 L 638.36119575118 393.43813672718 Z"/></svg>